<svg width="54" height="54" viewBox="0 0 54 54" fill="none" xmlns="http://www.w3.org/2000/svg">
<g clip-path="url(#clip0)">
<path d="M35.2174 7.04348H42.3795C42.9252 9.7186 45.2954 11.7391 48.1304 11.7391C51.3667 11.7391 54 9.10585 54 5.86957C54 2.63328 51.3667 0 48.1304 0C45.2965 0 42.9252 2.02053 42.3795 4.69565H34.0435C33.394 4.69565 32.8696 5.22013 32.8696 5.86957V11.7391H28.1739V10.5652C28.1739 4.73922 23.4347 0 17.6087 0C12.8976 0 8.83587 3.0477 7.49287 7.49287C3.0477 8.83587 0 12.8976 0 17.6087C0 21.6927 2.32776 25.2414 5.72741 27C2.32776 28.7586 0 32.3073 0 36.3913C0 41.1024 3.0477 45.1641 7.49287 46.5071C8.83587 50.9523 12.8976 54 17.6087 54C23.4347 54 28.1739 49.2608 28.1739 43.4348V42.2609H32.8696V48.1304C32.8696 48.7799 33.394 49.3043 34.0435 49.3043H42.3795C42.9252 51.9795 45.2954 54 48.1304 54C51.3667 54 54 51.3667 54 48.1304C54 44.8941 51.3667 42.2609 48.1304 42.2609C45.2965 42.2609 42.9252 44.2814 42.3795 46.9565H35.2174V28.1739H42.3795C42.9252 30.849 45.2954 32.8696 48.1304 32.8696C51.3667 32.8696 54 30.2363 54 27C54 23.7637 51.3667 21.1304 48.1304 21.1304C45.2965 21.1304 42.9252 23.151 42.3795 25.8261H35.2174V7.04348ZM48.1304 2.34783C50.0719 2.34783 51.6522 3.92814 51.6522 5.86957C51.6522 7.81099 50.0719 9.3913 48.1304 9.3913C46.189 9.3913 44.6087 7.81099 44.6087 5.86957C44.6087 3.92814 46.189 2.34783 48.1304 2.34783ZM48.1304 44.6087C50.0719 44.6087 51.6522 46.189 51.6522 48.1304C51.6522 50.0719 50.0719 51.6522 48.1304 51.6522C46.189 51.6522 44.6087 50.0719 44.6087 48.1304C44.6087 46.189 46.189 44.6087 48.1304 44.6087ZM48.1304 23.4783C50.0719 23.4783 51.6522 25.0586 51.6522 27C51.6522 28.9414 50.0719 30.5217 48.1304 30.5217C46.189 30.5217 44.6087 28.9414 44.6087 27C44.6087 25.0586 46.189 23.4783 48.1304 23.4783ZM17.6087 51.6522C13.7574 51.6522 10.462 49.0344 9.59651 45.2839C9.46066 44.6746 9.3913 44.051 9.3913 43.4348C9.3913 38.9048 13.0787 35.2174 17.6087 35.2174C18.2581 35.2174 18.7826 34.6929 18.7826 34.0435C18.7826 33.394 18.2581 32.8696 17.6087 32.8696C11.7827 32.8696 7.04348 37.6088 7.04348 43.4348C7.04348 43.5603 7.0601 43.6858 7.06469 43.8114C4.2262 42.4804 2.34783 39.6431 2.34783 36.3913C2.34783 31.8613 6.03522 28.1739 10.5652 28.1739H17.6087C18.2581 28.1739 18.7826 27.6494 18.7826 27C18.7826 26.3506 18.2581 25.8261 17.6087 25.8261H10.5652C6.03522 25.8261 2.34783 22.1387 2.34783 17.6087C2.34783 14.3569 4.2262 11.5196 7.06469 10.1886C7.0601 10.3142 7.04348 10.4397 7.04348 10.5652C7.04348 16.3912 11.7827 21.1304 17.6087 21.1304C18.2581 21.1304 18.7826 20.606 18.7826 19.9565C18.7826 19.3071 18.2581 18.7826 17.6087 18.7826C13.0787 18.7826 9.3913 15.0952 9.3913 10.5652C9.3913 9.94903 9.46066 9.32539 9.59651 8.71607C10.462 4.96563 13.7574 2.34783 17.6087 2.34783C22.1387 2.34783 25.8261 6.03522 25.8261 10.5652V43.4348C25.8261 47.9648 22.1387 51.6522 17.6087 51.6522ZM32.8696 39.913H28.1739V28.1739H32.8696V39.913ZM28.1739 25.8261V14.087H32.8696V25.8261H28.1739Z" fill="#F43557"/>
</g>
<defs>
<clipPath id="clip0">
<rect width="54" height="54" fill="white"/>
</clipPath>
</defs>
</svg>
