<svg width="57" height="47" viewBox="0 0 57 47" fill="none" xmlns="http://www.w3.org/2000/svg">
<path d="M55.8749 36.6301H54.8305V4.53532C54.8305 2.03453 52.796 0 50.2952 0H6.69274C4.19195 0 2.15742 2.03453 2.15742 4.53532V36.6302H1.11305C0.49831 36.6302 0 37.1285 0 37.7432V41.9067C0 44.7151 2.28475 47 5.09318 47H51.8946C54.7031 47 56.9879 44.7153 56.9879 41.9068V37.7434C56.9879 37.1284 56.4895 36.6301 55.8749 36.6301ZM6.69274 2.22609H50.2952C51.5685 2.22609 52.6044 3.262 52.6044 4.53521V7.6336H4.38351V4.53532C4.38351 3.262 5.41942 2.22609 6.69274 2.22609ZM4.38351 9.85969H52.6044V36.6301H36.5505C35.9359 36.6301 35.4375 37.1284 35.4375 37.7431C35.4375 38.454 34.8591 39.0323 34.1482 39.0323H22.8397C22.1288 39.0323 21.5504 38.4539 21.5504 37.7431C21.5504 37.1284 21.0521 36.6301 20.4374 36.6301H4.38351V9.85969ZM54.7618 41.9067C54.7618 43.4877 53.4756 44.7738 51.8946 44.7738H5.09318C3.51221 44.7738 2.22609 43.4876 2.22609 41.9066V38.8562H19.5049C19.9716 40.2506 21.2902 41.2584 22.8396 41.2584H34.1481C35.6976 41.2584 37.0162 40.2506 37.4829 38.8562H54.7618V41.9067Z" fill="#F43557"/>
<path d="M27.8689 5.91164H29.1193C29.7339 5.91164 30.2323 5.41333 30.2323 4.79859C30.2323 4.18386 29.7339 3.68555 29.1193 3.68555H27.8689C27.2542 3.68555 26.7559 4.18386 26.7559 4.79859C26.7559 5.41333 27.2542 5.91164 27.8689 5.91164Z" fill="#F43557"/>
<path d="M28.6462 33.1367C22.346 33.1367 16.7086 29.6061 13.9362 23.9224C13.8051 23.6565 13.8051 23.3434 13.9362 23.0776C16.7086 17.3939 22.3451 13.8633 28.6462 13.8633C34.9474 13.8633 40.5838 17.3939 43.3563 23.0776C43.4873 23.3434 43.4873 23.6565 43.3563 23.9224C40.5838 29.6061 34.9464 33.1367 28.6462 33.1367ZM15.8821 23.4995C18.3983 28.268 23.2468 31.21 28.6462 31.21C34.0457 31.21 38.8942 28.268 41.4104 23.4995C38.8942 18.731 34.0457 15.789 28.6462 15.789C23.2468 15.789 18.3983 18.731 15.8821 23.4995Z" fill="#F43557"/>
<path d="M28.6472 29.2826C25.4595 29.2826 22.8672 26.6893 22.8672 23.5007C22.8672 20.312 25.4595 17.7188 28.6472 17.7188C31.8348 17.7188 34.4272 20.312 34.4272 23.5007C34.4272 26.6893 31.8348 29.2826 28.6472 29.2826ZM28.6472 19.6454C26.5221 19.6454 24.7939 21.3746 24.7939 23.5007C24.7939 25.6267 26.5221 27.3559 28.6472 27.3559C30.7723 27.3559 32.5005 25.6267 32.5005 23.5007C32.5005 21.3746 30.7723 19.6454 28.6472 19.6454Z" fill="#F43557"/>
</svg>
